<svg xmlns="http://www.w3.org/2000/svg" viewBox="0 0 1024 1024" width="1024" height="1024">
  <defs>
    <linearGradient id="logoGradient" x1="0%" y1="100%" x2="100%" y2="0%">
      <stop offset="0%" stop-color="#4F46E5"/>
      <stop offset="25%" stop-color="#6C5BFF"/>
      <stop offset="55%" stop-color="#8E73FF"/>
      <stop offset="85%" stop-color="#B49AFF"/>
      <stop offset="100%" stop-color="#F3EEFF"/>
    </linearGradient>

    <filter id="softGlow" x="-30%" y="-30%" width="160%" height="160%">
      <feGaussianBlur stdDeviation="3" result="blur"/>
      <feMerge>
        <feMergeNode in="blur"/>
        <feMergeNode in="SourceGraphic"/>
      </feMerge>
    </filter>
  </defs>

  <g fill="url(#logoGradient)"
     stroke="url(#logoGradient)"
     stroke-width="6"
     stroke-linecap="round"
     stroke-linejoin="round"
     filter="url(#softGlow)">

    <path d="M455.50 123.50 L440.00 132.50 L419.00 147.00 L388.00 165.50 L382.50 170.00 L357.50 185.00 L227.50 268.00 L225.00 272.50 L225.00 441.50 L226.50 445.00 L230.50 449.00 L373.00 543.00 L389.00 555.00 L418.50 573.50 L434.00 585.00 L512.50 638.00 L521.50 647.00 L540.50 683.00 L543.50 687.00 L547.00 689.00 L552.00 690.00 L569.50 689.50 L581.50 684.50 L609.00 667.00 L617.50 657.50 L618.50 652.00 L619.00 593.50 L616.50 586.00 L610.50 580.00 L440.50 464.00 L426.50 455.50 L417.50 448.00 L336.50 393.50 L332.50 388.50 L330.00 381.50 L330.00 341.00 L335.50 330.00 L381.00 302.00 L418.00 277.50 L423.50 275.00 L466.50 248.50 L469.50 245.50 L472.50 244.50 L485.00 235.50 L492.00 232.50 L577.00 232.50 L587.00 234.50 L729.00 331.00 L733.00 332.50 L738.50 332.50 L743.50 330.50 L814.50 285.50 L817.50 280.50 L817.50 259.50 L815.50 255.00 L806.00 248.00 L630.50 130.00 L619.00 123.50 Z"/>

    <path d="M490.00 304.50 L484.50 306.50 L451.50 327.50 L445.50 333.50 L440.50 342.50 L437.00 353.00 L435.50 361.00 L435.00 377.00 L438.50 396.50 L443.00 407.00 L451.00 415.00 L541.00 476.00 L592.50 509.50 L597.50 514.00 L651.00 548.50 L706.00 586.50 L711.00 593.50 L712.50 604.50 L712.00 651.00 L709.50 659.00 L703.50 665.50 L682.50 678.00 L663.00 691.00 L623.00 715.00 L616.50 720.00 L610.50 723.00 L602.00 729.00 L599.00 730.00 L574.00 746.50 L564.50 750.00 L456.00 750.00 L448.50 748.50 L441.00 744.00 L382.00 702.00 L354.00 683.50 L303.50 647.00 L295.00 643.50 L288.50 645.50 L271.50 657.00 L229.50 682.50 L222.50 688.00 L221.00 691.50 L221.00 722.50 L223.00 726.00 L405.50 848.50 L418.50 858.50 L428.50 864.50 L594.00 865.00 L601.00 862.00 L626.50 846.50 L646.50 832.50 L674.00 816.50 L787.00 744.00 L812.00 729.00 L816.50 723.50 L816.50 544.00 L814.50 540.00 L812.00 537.50 L683.00 451.00 L657.50 435.50 L654.00 431.50 L599.00 394.50 L575.00 379.50 L562.00 369.50 L537.50 353.50 L528.50 345.50 L522.00 336.50 L510.00 311.50 L505.50 307.50 L498.00 304.50 Z"/>
  </g>
</svg>